<svg width="30" height="30" viewBox="0 0 30 30" fill="none" xmlns="http://www.w3.org/2000/svg">
<path fill-rule="evenodd" clip-rule="evenodd" d="M15 28.5C22.4558 28.5 28.5 22.4558 28.5 15C28.5 7.54416 22.4558 1.5 15 1.5C7.54416 1.5 1.5 7.54416 1.5 15C1.5 22.4558 7.54416 28.5 15 28.5ZM15 30C23.2843 30 30 23.2843 30 15C30 6.71573 23.2843 0 15 0C6.71573 0 0 6.71573 0 15C0 23.2843 6.71573 30 15 30Z" fill="black"/>
<path d="M6 9.5L8.55057 17.3372H10.1478L7.59855 9.5H6Z" fill="black"/>
<path d="M22.4015 9.50004L19.1006 19.6442L17.3481 14.2602H15.7509L18.3015 22.1H19.9L24 9.50004H22.4015Z" fill="black"/>
<path d="M10.1 22.1L14.2014 9.50004H15.7986L11.6986 22.1H10.1Z" fill="black"/>
<path d="M29.5 29C29.5 28.4434 29.0566 28 28.5 28C27.9481 28 27.5 28.4434 27.5 29C27.5 29.5519 27.9481 30 28.5 30C29.0566 30 29.5 29.5519 29.5 29ZM29.3491 29C29.3491 29.467 28.9717 29.8491 28.5 29.8491C28.0283 29.8491 27.6509 29.467 27.6509 29C27.6509 28.5236 28.0283 28.1509 28.5 28.1509C28.9717 28.1509 29.3491 28.5236 29.3491 29ZM28.9717 29.5755L28.6651 29.1179C28.7311 29.1179 28.9575 29.033 28.9575 28.7783C28.9575 28.566 28.7783 28.4292 28.5849 28.4292H28.1179V29.5755H28.2783V29.1226H28.4764L28.7736 29.5755H28.9717ZM28.7925 28.7783C28.7925 28.8962 28.684 28.9764 28.5849 28.9764H28.2783V28.5708H28.5849C28.684 28.5708 28.7925 28.6509 28.7925 28.7783Z" fill="black"/>
</svg>
